<svg xmlns="http://www.w3.org/2000/svg" viewBox="0 0 882.86 151.03"><defs><style>.cls-1{fill:#0b1d45;}.cls-2{fill:none;}.cls-3{fill:#07b1c2;}.cls-4{fill:#02eaae;}.cls-5{fill:#0f5be3;}</style></defs><g id="Camada_2" data-name="Camada 2"><g id="Camada_1-2" data-name="Camada 1"><path class="cls-1" d="M207.44,114.74A37.06,37.06,0,0,1,188.81,110a35.13,35.13,0,0,1-18-31.12,35.1,35.1,0,0,1,4.83-18.31,35.87,35.87,0,0,1,13.15-12.88A36.69,36.69,0,0,1,207.44,43a40.53,40.53,0,0,1,16.22,3.33,36.25,36.25,0,0,1,13.07,9.48L223.79,69.23a25.11,25.11,0,0,0-7.46-6.08A18.51,18.51,0,0,0,208,61.26a15.24,15.24,0,0,0-8.23,2.28A16,16,0,0,0,194,69.82a19.34,19.34,0,0,0-2.09,9.09,18.5,18.5,0,0,0,2.16,9,16.11,16.11,0,0,0,14.45,8.56,17.58,17.58,0,0,0,8-1.83A24.17,24.17,0,0,0,223.53,89l12.55,13.08a36,36,0,0,1-12.82,9.35A38.92,38.92,0,0,1,207.44,114.74Z"/><path class="cls-1" d="M276.88,114.74A38.31,38.31,0,0,1,257.79,110a36.39,36.39,0,0,1-13.47-12.88,34.06,34.06,0,0,1-5-18.18,34.36,34.36,0,0,1,5-18.24,36.18,36.18,0,0,1,13.47-13,40.59,40.59,0,0,1,38.18,0,36.18,36.18,0,0,1,13.47,13,34.45,34.45,0,0,1,5,18.24,34.14,34.14,0,0,1-5,18.18A36.39,36.39,0,0,1,296,110,38.34,38.34,0,0,1,276.88,114.74Zm0-18.31a16,16,0,0,0,8.63-2.35,17.21,17.21,0,0,0,6-6.34,17.84,17.84,0,0,0,2.22-8.83,18.12,18.12,0,0,0-2.22-9,17.08,17.08,0,0,0-6.09-6.34,16.78,16.78,0,0,0-17.13,0A17,17,0,0,0,262.23,70a18.12,18.12,0,0,0-2.22,9,17.84,17.84,0,0,0,2.22,8.83,17,17,0,0,0,6.08,6.34A16.12,16.12,0,0,0,276.88,96.43Z"/><path class="cls-1" d="M324.35,113.43V44.26h21.18V49a29.63,29.63,0,0,1,18.57-6,28.5,28.5,0,0,1,14.32,3.53,25.3,25.3,0,0,1,9.74,9.81,29,29,0,0,1,3.53,14.51v42.63H370.51V73.68A11.72,11.72,0,0,0,358,61.13a16.77,16.77,0,0,0-7.13,1.43,15.56,15.56,0,0,0-5.3,4.06v46.81Z"/><path class="cls-1" d="M436.42,114.35a34.33,34.33,0,0,1-17.85-4.77,35.53,35.53,0,0,1-12.75-12.82,34.9,34.9,0,0,1-4.71-18,34.56,34.56,0,0,1,4.77-18,35.27,35.27,0,0,1,12.95-12.75,37.48,37.48,0,0,1,27.52-3.53,34.85,34.85,0,0,1,8.37,3.4v-26l21.19-3.26v94.8H455v-5.1A30.75,30.75,0,0,1,436.42,114.35Zm3.66-18a23.12,23.12,0,0,0,8.11-1.37,19.08,19.08,0,0,0,6.53-4.12V66.62a18.47,18.47,0,0,0-6.53-4,23.53,23.53,0,0,0-8.11-1.37,18.7,18.7,0,0,0-9.22,2.28,17.38,17.38,0,0,0-6.54,6.28,17.8,17.8,0,0,0,0,17.92A17.28,17.28,0,0,0,430.86,94,18.6,18.6,0,0,0,440.08,96.3Z"/><path class="cls-1" d="M523.38,114.74A38.31,38.31,0,0,1,504.29,110a36.39,36.39,0,0,1-13.47-12.88,34.06,34.06,0,0,1-5-18.18,34.36,34.36,0,0,1,5-18.24,36.18,36.18,0,0,1,13.47-13,40.59,40.59,0,0,1,38.18,0,36.18,36.18,0,0,1,13.47,13,34.45,34.45,0,0,1,5,18.24,34.14,34.14,0,0,1-5,18.18A36.39,36.39,0,0,1,542.47,110,38.34,38.34,0,0,1,523.38,114.74Zm0-18.31A16,16,0,0,0,532,94.08a17.11,17.11,0,0,0,6-6.34,17.74,17.74,0,0,0,2.23-8.83A18,18,0,0,0,538,70a17,17,0,0,0-6.08-6.34,16.78,16.78,0,0,0-17.13,0A17,17,0,0,0,508.73,70a18.12,18.12,0,0,0-2.22,9,17.84,17.84,0,0,0,2.22,8.83,17,17,0,0,0,6.08,6.34A16.12,16.12,0,0,0,523.38,96.43Z"/><path class="cls-1" d="M570.85,113.43V44.26H592v6.93a22.76,22.76,0,0,1,8-6.35,23.74,23.74,0,0,1,10.2-2.15q5.63.12,8,1.7V62.82a19.16,19.16,0,0,0-4.71-1.56,27.22,27.22,0,0,0-5.36-.53A19.18,19.18,0,0,0,598.9,63,18.15,18.15,0,0,0,592,69.49v43.94Z"/><path class="cls-1" d="M658.72,114.74a30.65,30.65,0,0,1-16.21-4.44,32.34,32.34,0,0,1-11.58-12,34.18,34.18,0,0,1-4.25-17,34.24,34.24,0,0,1,4.25-17,32.38,32.38,0,0,1,11.58-12,30.65,30.65,0,0,1,16.21-4.44,35.61,35.61,0,0,1,13.15,2.61,37.14,37.14,0,0,1,11.57,7.19l-3.92,4.71a31.84,31.84,0,0,0-9.62-6.6,27.19,27.19,0,0,0-11.18-2.42A24.45,24.45,0,0,0,645.45,57,26.77,26.77,0,0,0,636,67.08a29.07,29.07,0,0,0-3.46,14.18A29.08,29.08,0,0,0,636,95.45a26.77,26.77,0,0,0,9.42,10.07,24.45,24.45,0,0,0,13.27,3.73,26.49,26.49,0,0,0,11.18-2.49,34.15,34.15,0,0,0,9.62-6.53l3.92,4.7a37,37,0,0,1-11.57,7.2A35.61,35.61,0,0,1,658.72,114.74Z"/><path class="cls-1" d="M695.6,113.43V21.89l5.75-1.43v93Z"/><path class="cls-1" d="M738.49,114.74a30,30,0,0,1-12.42-2.42,19.62,19.62,0,0,1-8.37-6.8,18.37,18.37,0,0,1,3.92-24.45q6.93-5.43,18.44-5.43a37.43,37.43,0,0,1,20.4,5.62V70.54q0-8.9-4.84-13.27t-13.86-4.38a32.81,32.81,0,0,0-9.28,1.43A65.39,65.39,0,0,0,721.36,59l-2.48-5.1a60.05,60.05,0,0,1,11.77-4.64,43.37,43.37,0,0,1,11.24-1.5q11.64,0,18,5.55t6.35,16.15v43.94h-5.76v-7.19a33.05,33.05,0,0,1-9.94,6.28A31.8,31.8,0,0,1,738.49,114.74Zm-18-19.48a12.52,12.52,0,0,0,5.23,10.33c3.48,2.7,7.89,4,13.2,4a28.61,28.61,0,0,0,12.17-2.42,30.46,30.46,0,0,0,9.41-6.86V87a30.16,30.16,0,0,0-9.41-4.84,39.46,39.46,0,0,0-11.64-1.57q-8.5,0-13.73,4A12.79,12.79,0,0,0,720.45,95.26Z"/><path class="cls-1" d="M802.05,114.74a38,38,0,0,1-14.19-2.68,29.71,29.71,0,0,1-11.31-7.78l4.44-3.66a28.61,28.61,0,0,0,9.48,6.41,29.56,29.56,0,0,0,11.58,2.35q8.88,0,14.31-3.86a11.76,11.76,0,0,0,5.43-10,9.88,9.88,0,0,0-3.27-7.59q-3.27-3-10.59-3.92L797.34,82.7q-9.17-1-13.93-5.36a14.76,14.76,0,0,1-4.77-11.51,15.89,15.89,0,0,1,2.87-9.41,19.11,19.11,0,0,1,8-6.35,29.37,29.37,0,0,1,12-2.28,40.25,40.25,0,0,1,12.56,2,44.33,44.33,0,0,1,12.16,6.41l-3.4,4.7A47,47,0,0,0,812.31,55a30.09,30.09,0,0,0-10.66-1.89c-5,0-9.2,1.07-12.42,3.2a10.63,10.63,0,0,0-4.84,9.48,9.73,9.73,0,0,0,3.2,7.59q3.21,2.88,10.4,3.79l10.46,1.31q9.67,1.17,14.39,5.62a15,15,0,0,1,4.71,11.38,16.15,16.15,0,0,1-3.27,9.87,21.81,21.81,0,0,1-9,6.87A33,33,0,0,1,802.05,114.74Z"/><path class="cls-1" d="M857.36,114.74a38,38,0,0,1-14.19-2.68,29.71,29.71,0,0,1-11.31-7.78l4.45-3.66a28.4,28.4,0,0,0,9.48,6.41,29.51,29.51,0,0,0,11.57,2.35q8.89,0,14.32-3.86a11.76,11.76,0,0,0,5.43-10,9.92,9.92,0,0,0-3.27-7.59q-3.27-3-10.6-3.92L852.65,82.7q-9.15-1-13.93-5.36A14.76,14.76,0,0,1,834,65.83a15.83,15.83,0,0,1,2.88-9.41,19.14,19.14,0,0,1,8-6.35,29.38,29.38,0,0,1,12-2.28,40.18,40.18,0,0,1,12.55,2,44.33,44.33,0,0,1,12.16,6.41l-3.4,4.7A47.16,47.16,0,0,0,867.63,55,30.13,30.13,0,0,0,857,53.15q-7.59,0-12.43,3.2a10.65,10.65,0,0,0-4.83,9.48,9.7,9.7,0,0,0,3.2,7.59q3.21,2.88,10.4,3.79l10.46,1.31q9.68,1.17,14.38,5.62a15,15,0,0,1,4.71,11.38,16.09,16.09,0,0,1-3.27,9.87,21.81,21.81,0,0,1-9,6.87A33,33,0,0,1,857.36,114.74Z"/><path class="cls-2" d="M4,67.79c-.06-.53-.11-1.06-.15-1.6C3.93,66.73,4,67.26,4,67.79Z"/><path class="cls-2" d="M4.32,69.89c-.09-.57-.16-1.14-.23-1.71C4.16,68.75,4.23,69.32,4.32,69.89Z"/><path class="cls-2" d="M4.64,71.69c-.1-.51-.19-1-.27-1.52C4.45,70.68,4.54,71.18,4.64,71.69Z"/><path class="cls-2" d="M3.87,66c-.05-.58-.08-1.17-.1-1.75C3.79,64.83,3.82,65.42,3.87,66Z"/><path class="cls-2" d="M4.77,51.71A50.88,50.88,0,0,0,3.72,62c0,.61,0,1.2,0,1.8,0-.6,0-1.19,0-1.8A50.88,50.88,0,0,1,4.77,51.71Z"/><path class="cls-2" d="M6,46.9c.09-.28.19-.57.28-.86C6.21,46.33,6.11,46.62,6,46.9Z"/><path class="cls-2" d="M5.07,73.68c-.13-.55-.26-1.11-.37-1.67C4.81,72.57,4.94,73.13,5.07,73.68Z"/><path class="cls-2" d="M7.38,81c-.21-.54-.42-1.08-.62-1.62C7,79.9,7.17,80.43,7.38,81Z"/><path class="cls-2" d="M8.94,84.44c-.51-1-1-2.09-1.43-3.17C8,82.35,8.43,83.4,8.94,84.44Z"/><path class="cls-2" d="M5.53,75.51,5.14,74Z"/><path class="cls-2" d="M6.09,77.38c-.17-.54-.34-1.09-.49-1.64C5.75,76.29,5.92,76.84,6.09,77.38Z"/><path class="cls-2" d="M6.73,79.27c-.19-.52-.37-1-.54-1.57C6.36,78.23,6.54,78.75,6.73,79.27Z"/><path class="cls-2" d="M46.45,52.83c0-.32.1-.64.16-.95C46.55,52.19,46.5,52.51,46.45,52.83Z"/><path class="cls-2" d="M46.22,54.55c0-.33.08-.66.13-1C46.3,53.89,46.26,54.22,46.22,54.55Z"/><path class="cls-2" d="M36.32,109.32a50.06,50.06,0,0,0,8.28,2.36,51.05,51.05,0,0,1-8.28-2.36Z"/><path class="cls-2" d="M46.05,56.3l.09-1Z"/><path class="cls-2" d="M46.74,51.14c0-.31.12-.63.18-.94C46.86,50.51,46.79,50.83,46.74,51.14Z"/><path class="cls-2" d="M47.07,49.47c.07-.31.15-.63.23-.94C47.22,48.84,47.14,49.16,47.07,49.47Z"/><path class="cls-2" d="M47.47,47.83c.09-.35.18-.7.28-1C47.65,47.13,47.56,47.48,47.47,47.83Z"/><path class="cls-2" d="M45.93,58.14c0-.39,0-.77.07-1.16C46,57.37,46,57.75,45.93,58.14Z"/><path class="cls-2" d="M77.07,107.2h0Z"/><path class="cls-2" d="M78.27,106.57l.69-.38h0Z"/><path class="cls-2" d="M45.87,60.46h0c0-.58,0-1.16,0-1.74C45.89,59.3,45.87,59.88,45.87,60.46Z"/><path class="cls-2" d="M69.5,110.28c.53-.17,1-.34,1.58-.53-.53.19-1,.36-1.58.53Z"/><path class="cls-2" d="M87.88,99.83l-.93.82Z"/><path class="cls-2" d="M89,98.78l-.82.76Z"/><path class="cls-2" d="M90.18,97.66l-.74.73Z"/><path class="cls-2" d="M86.77,100.8A51.46,51.46,0,0,1,79,106.16,51.46,51.46,0,0,0,86.77,100.8Z"/><path class="cls-2" d="M75.93,107.76l-.55.25Z"/><path class="cls-2" d="M74.8,108.27l-.73.32Z"/><path class="cls-2" d="M91.3,96.49c-.22.24-.44.47-.67.7C90.86,97,91.08,96.73,91.3,96.49Z"/><path class="cls-2" d="M95.48,91.38l-.43.59Z"/><path class="cls-2" d="M92.4,95.28l-.61.68Z"/><path class="cls-2" d="M96.43,90l-.33.48Z"/><path class="cls-2" d="M93.46,94l-.55.66Z"/><path class="cls-2" d="M94.49,92.72l-.49.63Z"/><path class="cls-2" d="M12.83,91c-.33-.47-.66-.94-1-1.43C12.17,90.05,12.5,90.52,12.83,91Z"/><path class="cls-2" d="M9.88,86.25c-.28-.51-.55-1-.81-1.55C9.33,85.22,9.6,85.74,9.88,86.25Z"/><path class="cls-2" d="M16.33,95.45c-.8-.91-1.57-1.84-2.3-2.8C14.76,93.61,15.53,94.54,16.33,95.45Z"/><path class="cls-2" d="M14,92.54c-.36-.47-.71-1-1-1.44C13.24,91.58,13.59,92.07,14,92.54Z"/><path class="cls-2" d="M11.8,89.47c-.32-.49-.63-1-.93-1.49C11.17,88.48,11.48,89,11.8,89.47Z"/><path class="cls-2" d="M10.75,87.78c-.29-.49-.57-1-.85-1.49C10.18,86.79,10.46,87.29,10.75,87.78Z"/><path class="cls-2" d="M18.91,98.17c-.86-.85-1.7-1.72-2.5-2.63C17.21,96.45,18.05,97.32,18.91,98.17Z"/><path class="cls-2" d="M47.54,112.16c-.48-.06-.94-.13-1.41-.21C46.6,112,47.06,112.1,47.54,112.16Z"/><path class="cls-2" d="M46,111.93l-1.32-.23Z"/><path class="cls-2" d="M73.72,108.74l-.87.35Z"/><path class="cls-2" d="M21.7,100.71c-.93-.79-1.84-1.61-2.71-2.47C19.86,99.1,20.77,99.92,21.7,100.71Z"/><path class="cls-2" d="M36.32,109.32a50.41,50.41,0,0,1-14.57-8.57A50.41,50.41,0,0,0,36.32,109.32Z"/><path class="cls-2" d="M71.14,109.73c.52-.18,1-.38,1.55-.58h0C72.17,109.35,71.66,109.55,71.14,109.73Z"/><path class="cls-2" d="M107.81,11.17l.31.07Z"/><path class="cls-2" d="M111.61,12.2l.5.17Z"/><path class="cls-2" d="M105.88,10.77l.47.09Z"/><path class="cls-2" d="M50.53,39.25l.27-.58Z"/><path class="cls-2" d="M55.3,31.06h0Z"/><path class="cls-2" d="M109.89,11.69l.06,0Z"/><path class="cls-2" d="M51.25,37.76l.25-.49Z"/><path class="cls-2" d="M52,36.31,52.2,36Z"/><path class="cls-2" d="M59.14,26.33l0-.06Z"/><path class="cls-2" d="M58.08,27.52l.13-.15Z"/><path class="cls-2" d="M57.08,28.73l.14-.18Z"/><path class="cls-2" d="M100.62,10.06l0,0c.74.05,1.48.11,2.22.2C102.09,10.2,101.36,10.12,100.62,10.06Z"/><path class="cls-2" d="M56.14,29.93l.11-.15Z"/><path class="cls-2" d="M104,10.46l.52.08Z"/><path class="cls-2" d="M49.86,40.76l.27-.63Z"/><path class="cls-2" d="M59.05,23.86,59,24l.22-.19Z"/><path class="cls-2" d="M48.08,45.68c.1-.33.19-.65.3-1C48.27,45,48.18,45.35,48.08,45.68Z"/><path class="cls-2" d="M115,13.4l.61.25Z"/><path class="cls-2" d="M45.87,40.8v0l0-.06Z"/><path class="cls-2" d="M49.24,42.3c.09-.23.17-.45.27-.68C49.41,41.85,49.33,42.07,49.24,42.3Z"/><path class="cls-2" d="M113.31,12.77l.58.21Z"/><path class="cls-2" d="M48.66,43.89c.09-.25.17-.5.26-.74C48.83,43.39,48.75,43.64,48.66,43.89Z"/><path class="cls-3" d="M6,46.9q-.73,2.37-1.25,4.81A50.88,50.88,0,0,0,3.72,62c0,.61,0,1.2,0,1.8,0,.14,0,.28,0,.42,0,.58,0,1.17.1,1.75a1.23,1.23,0,0,0,0,.19c0,.54.09,1.07.15,1.6,0,.13,0,.26,0,.39.07.57.14,1.14.23,1.71,0,.09,0,.19,0,.28.08.51.17,1,.27,1.52L4.7,72c.11.56.24,1.12.37,1.67,0,.11,0,.22.07.32l.39,1.51a2,2,0,0,0,.07.23c.15.55.32,1.1.49,1.64,0,.11.07.22.1.32.17.53.35,1,.54,1.57l0,.08c.2.54.41,1.08.62,1.62,0,.1.08.2.13.3.44,1.08.92,2.13,1.43,3.17,0,.09.08.17.13.26.26.52.53,1,.81,1.55l0,0c.28.5.56,1,.85,1.49l.12.2c.3.5.61,1,.93,1.49l.06.09c.31.49.64,1,1,1.43l.07.11c.34.48.69,1,1,1.44a.76.76,0,0,1,.08.11c.73,1,1.5,1.89,2.3,2.8l.08.09c.8.91,1.64,1.78,2.5,2.63l.08.07c.87.86,1.78,1.68,2.71,2.47l.05,0a50.41,50.41,0,0,0,14.57,8.57h0a51.05,51.05,0,0,0,8.28,2.36l.1,0,1.32.23.11,0c.47.08.93.15,1.41.21a50.82,50.82,0,0,0,22-1.88h0c.53-.17,1-.34,1.58-.53l.06,0c.52-.18,1-.38,1.55-.58h0l.16-.06.87-.35.35-.15.73-.32.58-.26.55-.25,1.14-.56h0c.4-.2.79-.41,1.18-.62l.69-.38h0l.05,0a51.46,51.46,0,0,0,7.76-5.36l.18-.15.93-.82.33-.29.82-.76.41-.39.74-.73.45-.47c.23-.23.45-.46.67-.7l.49-.53.61-.68.51-.6.55-.66.54-.67.49-.63.56-.75.43-.59c.21-.29.41-.59.62-.89l.33-.48q.46-.7.9-1.41c-.42.5-.9,1.1-1.44,1.81-7.12,9.28-19,12.73-29.44,8.58a25.56,25.56,0,0,1-7.53-4.63A50.54,50.54,0,0,1,52,84.59a51.17,51.17,0,0,1-2.47-5.24,50.47,50.47,0,0,1-3.65-18.89h0c0-.58,0-1.16,0-1.74,0-.2,0-.39,0-.58,0-.39,0-.77.07-1.16,0-.23,0-.45,0-.68l.09-1c0-.24,0-.48.08-.71s.08-.66.13-1,.07-.49.1-.73.1-.64.16-.95.08-.5.13-.74.12-.63.18-.94l.15-.73c.07-.31.15-.63.23-.94s.11-.46.17-.7.18-.7.28-1,.21-.74.33-1.11.19-.65.3-1l.28-.81c.09-.25.17-.5.26-.74s.21-.57.32-.85.17-.45.27-.68.23-.57.35-.86l.27-.63c.13-.3.27-.59.4-.88l.27-.58.45-.91.25-.49.51-1L52.2,36a51.86,51.86,0,0,1,3.1-4.9h0c.27-.38.55-.75.83-1.12l.11-.15c.27-.36.55-.71.83-1.05l.14-.18.86-1,.13-.15c.31-.35.61-.7.93-1l0-.06a50.91,50.91,0,0,1,14.47-11,49,49,0,0,1,16.6-4.75,58.8,58.8,0,0,1,10.34-.46l0,0c.74.06,1.47.14,2.2.23l.32,0c.3,0,.59.08.89.13l.52.08,1.33.23.47.09,1.46.31.31.07q.9.21,1.77.45l.06,0c.56.15,1.11.32,1.66.49l.5.17,1.2.4.58.21,1.1.42.61.25c.25.1.5.19.74.3,3.9,1.67,8.25,3.85,11.39,6.77h0a79.77,79.77,0,0,0-18.8-13A74.61,74.61,0,0,0,57.64,2.24,75,75,0,0,0,16,29,50.94,50.94,0,0,0,8,41.64c-.39.88-.75,1.78-1.09,2.69-.21.56-.42,1.13-.61,1.71C6.21,46.33,6.11,46.62,6,46.9Zm53-23,.13-.08L59,24ZM45.87,40.8l0,0,0,.06Z"/><path class="cls-4" d="M57.22,28.55l.86-1Z"/><path class="cls-4" d="M58.21,27.37c.31-.35.61-.7.93-1C58.82,26.67,58.52,27,58.21,27.37Z"/><path class="cls-4" d="M103.14,10.33l-.32,0,1.21.17C103.73,10.41,103.44,10.36,103.14,10.33Z"/><path class="cls-4" d="M115.6,13.65a50.48,50.48,0,0,1,12.13,7.07c-3.14-2.92-7.49-5.1-11.39-6.77C116.1,13.84,115.85,13.75,115.6,13.65Z"/><path class="cls-4" d="M110,11.71c.56.15,1.11.32,1.66.49C111.06,12,110.51,11.86,110,11.71Z"/><path class="cls-4" d="M112.11,12.37l1.2.4Z"/><path class="cls-4" d="M104.55,10.54l1.33.23Z"/><path class="cls-4" d="M113.89,13c.37.14.74.27,1.1.42Z"/><path class="cls-4" d="M106.35,10.86l1.46.31Z"/><path class="cls-4" d="M140.58,37.81a19.54,19.54,0,0,0-.76-2,27.43,27.43,0,0,0-3.29-5.41,76.39,76.39,0,0,0-8.8-9.71h0a50.48,50.48,0,0,0-12.13-7.07L115,13.4c-.36-.15-.73-.28-1.1-.42l-.58-.21-1.2-.4-.5-.17c-.55-.17-1.1-.34-1.66-.49l-.06,0q-.87-.24-1.77-.45l-.31-.07-1.46-.31-.47-.09-1.33-.23-.52-.08-1.21-.17c-.74-.09-1.48-.15-2.22-.2a58.8,58.8,0,0,0-10.34.46,49,49,0,0,0-16.6,4.75A51.09,51.09,0,0,0,63.59,22l-.05.05c-.74.63-1.45,1.29-2.15,2l-.2.19c-.27.26-.54.53-.8.8l-.24.25c-.33.33-.64.66-1,1l0,.06c-.32.34-.62.69-.93,1l-.13.15-.86,1-.14.18c-.28.34-.56.69-.83,1.05l-.11.15c-.28.37-.56.74-.83,1.12h0A54,54,0,0,0,52.2,36l-.19.35-.51,1-.25.49-.45.91-.27.58c-.13.29-.27.58-.4.88l-.27.63c-.12.29-.24.57-.35.86s-.18.45-.27.68-.22.56-.32.85-.17.49-.26.74l-.28.81c-.11.33-.2.65-.3,1s-.22.74-.33,1.11-.19.69-.28,1-.12.47-.17.7-.16.63-.23.94l-.15.73c-.06.31-.13.63-.18.94s-.09.49-.13.74-.11.63-.16.95-.07.49-.1.73-.09.66-.13,1,0,.47-.08.71l-.09,1c0,.23,0,.46,0,.68,0,.39,0,.77-.07,1.16,0,.19,0,.38,0,.58,0,.58,0,1.16,0,1.74a50.47,50.47,0,0,0,3.65,18.89A51.17,51.17,0,0,0,52,84.59,23.92,23.92,0,0,1,50.24,74.5a25.56,25.56,0,0,1,18-23.22C79.07,48.09,90,52,96.62,61.42c2.52,3.6,3.5,3.85,7.29,1.68.31-.19.63-.37,1-.55q16.52-9.51,33-19C140.1,42.22,141.4,40.36,140.58,37.81Z"/><path class="cls-4" d="M108.12,11.24q.9.21,1.77.45Q109,11.45,108.12,11.24Z"/><path class="cls-4" d="M55.31,31.05c.27-.38.55-.75.83-1.12C55.86,30.3,55.58,30.67,55.31,31.05Z"/><path class="cls-4" d="M49.51,41.62c.11-.29.23-.57.35-.86C49.74,41.05,49.62,41.33,49.51,41.62Z"/><path class="cls-4" d="M45.91,58.72c0-.2,0-.39,0-.58C45.92,58.33,45.91,58.52,45.91,58.72Z"/><path class="cls-4" d="M45.87,60.46a50.47,50.47,0,0,0,3.65,18.89,50.47,50.47,0,0,1-3.65-18.89Z"/><path class="cls-4" d="M47.3,48.53c.05-.23.11-.46.17-.7C47.41,48.07,47.35,48.3,47.3,48.53Z"/><path class="cls-4" d="M46,57c0-.22,0-.45,0-.68C46,56.53,46,56.75,46,57Z"/><path class="cls-4" d="M51.5,37.27l.51-1Z"/><path class="cls-4" d="M50.13,40.13c.13-.3.27-.59.4-.88C50.4,39.54,50.26,39.83,50.13,40.13Z"/><path class="cls-4" d="M50.8,38.67l.45-.91Z"/><path class="cls-4" d="M52.2,36a54,54,0,0,1,3.1-4.9A51.86,51.86,0,0,0,52.2,36Z"/><path class="cls-4" d="M56.25,29.78c.27-.36.55-.71.83-1.05C56.8,29.07,56.52,29.42,56.25,29.78Z"/><path class="cls-4" d="M46.92,50.2l.15-.73Z"/><path class="cls-4" d="M46.61,51.88c0-.25.08-.5.13-.74C46.69,51.38,46.65,51.63,46.61,51.88Z"/><path class="cls-4" d="M47.75,46.79c.11-.37.21-.74.33-1.11C48,46.05,47.86,46.42,47.75,46.79Z"/><path class="cls-4" d="M46.35,53.56c0-.24.07-.49.1-.73C46.42,53.07,46.38,53.32,46.35,53.56Z"/><path class="cls-4" d="M48.38,44.7l.28-.81Z"/><path class="cls-4" d="M46.14,55.26c0-.24,0-.48.08-.71C46.19,54.78,46.17,55,46.14,55.26Z"/><path class="cls-4" d="M48.92,43.15c.1-.29.21-.57.32-.85C49.13,42.58,49,42.86,48.92,43.15Z"/><path class="cls-5" d="M4.7,72l-.06-.32Z"/><path class="cls-5" d="M9.07,84.7c-.05-.09-.09-.17-.13-.26C9,84.53,9,84.61,9.07,84.7Z"/><path class="cls-5" d="M79,106.16h0l-.05,0Z"/><path class="cls-5" d="M90.63,97.19l-.45.47Z"/><path class="cls-5" d="M7.51,81.27c0-.1-.09-.2-.13-.3C7.42,81.07,7.46,81.17,7.51,81.27Z"/><path class="cls-5" d="M9.9,86.29l0,0Z"/><path class="cls-5" d="M91.79,96l-.49.53Z"/><path class="cls-5" d="M88.21,99.54l-.33.29Z"/><path class="cls-5" d="M87,100.65l-.18.15Z"/><path class="cls-5" d="M4.37,70.17c0-.09,0-.19,0-.28C4.34,70,4.35,70.08,4.37,70.17Z"/><path class="cls-5" d="M89.44,98.39l-.41.39Z"/><path class="cls-5" d="M96.1,90.49c-.21.3-.41.6-.62.89C95.69,91.09,95.89,90.79,96.1,90.49Z"/><path class="cls-5" d="M95.05,92l-.56.75Z"/><path class="cls-5" d="M5.6,75.74a2,2,0,0,1-.07-.23A2,2,0,0,0,5.6,75.74Z"/><path class="cls-5" d="M6.19,77.7c0-.1-.07-.21-.1-.32C6.12,77.49,6.16,77.6,6.19,77.7Z"/><path class="cls-5" d="M97.33,88.6h0q-.43.7-.9,1.41Q96.89,89.31,97.33,88.6Z"/><path class="cls-5" d="M5.14,74c0-.1,0-.21-.07-.32C5.09,73.79,5.12,73.9,5.14,74Z"/><path class="cls-5" d="M6.76,79.35l0-.08Z"/><path class="cls-5" d="M92.91,94.68l-.51.6Z"/><path class="cls-5" d="M6.91,44.33c-.21.56-.42,1.13-.61,1.71C6.49,45.46,6.7,44.89,6.91,44.33Z"/><path class="cls-5" d="M94,93.35l-.54.67Z"/><path class="cls-5" d="M74.07,108.59l-.35.15Z"/><polygon class="cls-5" points="36.32 109.32 36.32 109.32 36.32 109.32 36.32 109.32 36.32 109.32"/><path class="cls-5" d="M137.57,107.43l-11-6.34L105,88.66c-4.34-2.51-5.34-2.83-7.71-.06q-.43.7-.9,1.41l-.33.48c-.21.3-.41.6-.62.89l-.43.59-.56.75-.49.63-.54.67-.55.66-.51.6-.61.68-.49.53c-.22.24-.44.47-.67.7l-.45.47-.74.73-.41.39-.82.76-.33.29-.93.82-.18.15A51.46,51.46,0,0,1,79,106.16h0l-.06,0-.69.38c-.39.21-.78.42-1.18.62h0l-1.14.56-.55.25-.58.26-.73.32-.35.15-.87.35h0l0,0-.12,0c-.52.2-1,.4-1.55.58l-.06,0c-.53.19-1,.36-1.58.53a50.82,50.82,0,0,1-22,1.88c-.48-.06-.94-.13-1.41-.21l-.11,0-1.32-.23-.1,0a50.06,50.06,0,0,1-8.28-2.36h0a50.41,50.41,0,0,1-14.57-8.57l-.05,0c-.93-.79-1.84-1.61-2.71-2.47l-.08-.07c-.86-.85-1.7-1.72-2.5-2.63l-.08-.09c-.8-.91-1.57-1.84-2.3-2.8a.76.76,0,0,0-.08-.11c-.36-.47-.71-1-1-1.44L12.83,91c-.33-.47-.66-.94-1-1.43l-.06-.09c-.32-.49-.63-1-.93-1.49l-.12-.2c-.29-.49-.57-1-.85-1.49l0,0c-.28-.51-.55-1-.81-1.55-.05-.09-.09-.17-.13-.26-.51-1-1-2.09-1.43-3.17,0-.1-.09-.2-.13-.3-.21-.54-.42-1.07-.62-1.62l0-.08c-.19-.52-.37-1-.54-1.57,0-.1-.07-.21-.1-.32-.17-.54-.34-1.09-.49-1.64a2,2,0,0,1-.07-.23L5.14,74c0-.1,0-.21-.07-.32-.13-.55-.26-1.11-.37-1.67l-.06-.32c-.1-.51-.19-1-.27-1.52,0-.09,0-.19,0-.28-.09-.57-.16-1.14-.23-1.71,0-.13,0-.26,0-.39-.06-.53-.11-1.06-.15-1.6a1.23,1.23,0,0,1,0-.19c-.05-.58-.08-1.17-.1-1.75,0-.14,0-.28,0-.42,0-.6,0-1.19,0-1.8a50.88,50.88,0,0,1,1-10.32Q5.28,49.27,6,46.9c.09-.28.19-.57.28-.86.19-.58.4-1.15.61-1.71.34-.91.7-1.81,1.09-2.69A74.9,74.9,0,0,0,8.52,110c13.38,25.9,35.42,40,64.57,41,28.61,1,50.82-11.54,66.56-35.43C142.39,111.39,141.92,109.94,137.57,107.43Z"/><path class="cls-5" d="M12.9,91.1,12.83,91Z"/><path class="cls-5" d="M21.75,100.75l-.05,0Z"/><path class="cls-5" d="M44.7,111.7l-.1,0Z"/><path class="cls-5" d="M14,92.65a.76.76,0,0,0-.08-.11A.76.76,0,0,1,14,92.65Z"/><path class="cls-5" d="M16.41,95.54l-.08-.09Z"/><path class="cls-5" d="M4.77,51.71Q5.28,49.27,6,46.9,5.29,49.27,4.77,51.71Z"/><path class="cls-5" d="M46.13,112l-.11,0Z"/><path class="cls-5" d="M19,98.24l-.08-.07Z"/><path class="cls-5" d="M77.07,107.2l-1.14.56Z"/><path class="cls-5" d="M4.09,68.18c0-.13,0-.26,0-.39C4.06,67.92,4.07,68.05,4.09,68.18Z"/><path class="cls-5" d="M10.87,88l-.12-.2Z"/><path class="cls-5" d="M75.38,108l-.58.26Z"/><path class="cls-5" d="M78.27,106.57c-.39.21-.78.42-1.18.62C77.49,107,77.88,106.78,78.27,106.57Z"/><path class="cls-5" d="M3.89,66.19a1.23,1.23,0,0,1,0-.19A1.23,1.23,0,0,0,3.89,66.19Z"/><path class="cls-5" d="M3.77,64.25c0-.14,0-.28,0-.42C3.75,64,3.76,64.11,3.77,64.25Z"/><path class="cls-5" d="M72.81,109.11l0,0h0l-.16.06Z"/><path class="cls-5" d="M71.14,109.73l-.06,0Z"/><path class="cls-5" d="M11.86,89.56l-.06-.09Z"/></g></g></svg>