<svg xmlns="http://www.w3.org/2000/svg" viewBox="0 0 539.13 539.13"><defs><style>.cls-1{fill:#fff;}.cls-2{fill:none;}.cls-3{fill:#07b1c2;}.cls-4{fill:#02eaae;}.cls-5{fill:#0f5be3;}</style></defs><g id="Camada_2" data-name="Camada 2"><g id="Camada_1-2" data-name="Camada 1"><rect class="cls-1" width="539.13" height="539.13" rx="126.14"/><path class="cls-2" d="M121.91,252.46c-.13-1.18-.25-2.36-.34-3.55C121.66,250.1,121.78,251.28,121.91,252.46Z"/><path class="cls-2" d="M122.53,257.1c-.19-1.26-.37-2.52-.52-3.79C122.16,254.58,122.34,255.84,122.53,257.1Z"/><path class="cls-2" d="M123.23,261.08c-.21-1.11-.41-2.23-.59-3.35C122.82,258.85,123,260,123.23,261.08Z"/><path class="cls-2" d="M121.53,248.49c-.1-1.29-.17-2.59-.23-3.89C121.36,245.9,121.43,247.2,121.53,248.49Z"/><path class="cls-2" d="M123.53,216.82a112.75,112.75,0,0,0-2.34,22.88c0,1.33,0,2.66.07,4,0-1.32-.07-2.65-.07-4A112.75,112.75,0,0,1,123.53,216.82Z"/><path class="cls-2" d="M126.3,206.17c.2-.64.41-1.28.62-1.91C126.71,204.89,126.5,205.53,126.3,206.17Z"/><path class="cls-2" d="M124.18,265.51c-.29-1.22-.56-2.46-.81-3.7C123.62,263.05,123.89,264.29,124.18,265.51Z"/><path class="cls-2" d="M129.31,281.66c-.48-1.19-.94-2.38-1.38-3.59C128.37,279.28,128.83,280.47,129.31,281.66Z"/><path class="cls-2" d="M132.76,289.34q-1.69-3.43-3.17-7Q131.06,285.9,132.76,289.34Z"/><path class="cls-2" d="M125.21,269.55c-.3-1.1-.59-2.21-.86-3.33C124.62,267.34,124.91,268.45,125.21,269.55Z"/><path class="cls-2" d="M126.45,273.71c-.39-1.21-.75-2.42-1.1-3.64C125.7,271.29,126.06,272.5,126.45,273.71Z"/><path class="cls-2" d="M127.87,277.89c-.42-1.14-.81-2.3-1.19-3.47C127.06,275.59,127.45,276.75,127.87,277.89Z"/><path class="cls-2" d="M215.89,219.3c.1-.71.22-1.41.34-2.11C216.11,217.89,216,218.59,215.89,219.3Z"/><path class="cls-2" d="M215.38,223.1c.08-.72.17-1.45.27-2.17C215.55,221.65,215.46,222.38,215.38,223.1Z"/><path class="cls-2" d="M193.44,344.48a110.67,110.67,0,0,0,18.33,5.22,110.67,110.67,0,0,1-18.33-5.22Z"/><path class="cls-2" d="M215,227c.07-.76.13-1.53.21-2.29C215.12,225.46,215.06,226.23,215,227Z"/><path class="cls-2" d="M216.52,215.56c.13-.7.27-1.39.41-2.08C216.79,214.17,216.65,214.86,216.52,215.56Z"/><path class="cls-2" d="M217.26,211.87c.16-.7.33-1.4.5-2.09C217.59,210.47,217.42,211.17,217.26,211.87Z"/><path class="cls-2" d="M218.13,208.23c.2-.78.42-1.55.64-2.32C218.55,206.68,218.33,207.45,218.13,208.23Z"/><path class="cls-2" d="M214.74,231.07c0-.86.07-1.71.13-2.56C214.81,229.36,214.77,230.21,214.74,231.07Z"/><path class="cls-2" d="M283.72,339.78h0Z"/><path class="cls-2" d="M286.39,338.38l1.52-.84h0Z"/><path class="cls-2" d="M214.6,236.22h0c0-1.3,0-2.59.07-3.87C214.63,233.63,214.6,234.92,214.6,236.22Z"/><path class="cls-2" d="M267,346.6c1.18-.37,2.34-.76,3.5-1.17-1.16.41-2.32.8-3.5,1.17Z"/><path class="cls-2" d="M307.69,323.45q-1,.92-2.07,1.8Q306.67,324.37,307.69,323.45Z"/><path class="cls-2" d="M310.24,321.12c-.6.56-1.21,1.13-1.82,1.68C309,322.25,309.64,321.68,310.24,321.12Z"/><path class="cls-2" d="M312.77,318.64c-.53.54-1.08,1.08-1.63,1.61C311.69,319.72,312.24,319.18,312.77,318.64Z"/><path class="cls-2" d="M305.22,325.59A112.28,112.28,0,0,1,288,337.47,112.28,112.28,0,0,0,305.22,325.59Z"/><path class="cls-2" d="M281.2,341l-1.21.56Z"/><path class="cls-2" d="M278.71,342.15l-1.62.7Z"/><path class="cls-2" d="M315.27,316.05l-1.48,1.56Z"/><path class="cls-2" d="M324.52,304.73c-.31.44-.63.86-.95,1.29C323.89,305.59,324.21,305.17,324.52,304.73Z"/><path class="cls-2" d="M317.7,313.36l-1.35,1.51Z"/><path class="cls-2" d="M326.62,301.69c-.24.36-.49.71-.73,1.06C326.13,302.4,326.38,302.05,326.62,301.69Z"/><path class="cls-2" d="M320.05,310.57c-.4.49-.81,1-1.22,1.46C319.24,311.55,319.65,311.06,320.05,310.57Z"/><path class="cls-2" d="M322.33,307.7c-.36.46-.73.92-1.09,1.39C321.6,308.62,322,308.16,322.33,307.7Z"/><path class="cls-2" d="M141.37,303.87c-.73-1-1.44-2.1-2.14-3.17C139.93,301.77,140.64,302.82,141.37,303.87Z"/><path class="cls-2" d="M134.85,293.36c-.62-1.14-1.22-2.29-1.8-3.44C133.63,291.07,134.23,292.22,134.85,293.36Z"/><path class="cls-2" d="M149.13,313.73q-2.65-3-5.08-6.2Q146.48,310.73,149.13,313.73Z"/><path class="cls-2" d="M143.87,307.3c-.8-1.06-1.58-2.12-2.34-3.2C142.29,305.18,143.07,306.24,143.87,307.3Z"/><path class="cls-2" d="M139.1,300.5c-.71-1.1-1.39-2.2-2.06-3.32C137.71,298.3,138.39,299.4,139.1,300.5Z"/><path class="cls-2" d="M136.78,296.75c-.64-1.09-1.28-2.2-1.89-3.31C135.5,294.55,136.14,295.66,136.78,296.75Z"/><path class="cls-2" d="M154.86,319.77c-1.92-1.87-3.76-3.82-5.54-5.83C151.1,316,152.94,317.9,154.86,319.77Z"/><path class="cls-2" d="M218.29,350.77c-1-.14-2.09-.29-3.12-.46C216.2,350.48,217.24,350.63,218.29,350.77Z"/><path class="cls-2" d="M214.92,350.27c-1-.16-1.95-.34-2.92-.52C213,349.93,214,350.11,214.92,350.27Z"/><path class="cls-2" d="M276.31,343.18l-1.92.79Z"/><path class="cls-2" d="M161.05,325.4c-2.08-1.75-4.08-3.57-6-5.47C157,321.83,159,323.65,161.05,325.4Z"/><path class="cls-2" d="M193.44,344.48a112,112,0,0,1-32.3-19A112,112,0,0,0,193.44,344.48Z"/><path class="cls-2" d="M270.58,345.39c1.16-.41,2.3-.84,3.44-1.28h0C272.88,344.55,271.74,345,270.58,345.39Z"/><path class="cls-2" d="M351.85,127l.69.15Z"/><path class="cls-2" d="M360.27,129.28c.37.11.74.24,1.11.36C361,129.52,360.64,129.39,360.27,129.28Z"/><path class="cls-2" d="M347.58,126.11l1,.19Z"/><path class="cls-2" d="M224.93,189.2l.6-1.26Z"/><path class="cls-2" d="M235.5,171.06v0Z"/><path class="cls-2" d="M356.46,128.15l.13,0Z"/><path class="cls-2" d="M226.51,185.92l.57-1.09Z"/><path class="cls-2" d="M228.2,182.7l.43-.77Z"/><path class="cls-2" d="M244,160.59l.12-.14Z"/><path class="cls-2" d="M241.66,163.22l.28-.33Z"/><path class="cls-2" d="M239.43,165.9l.32-.4Z"/><path class="cls-2" d="M335.92,124.53l-.06.07c1.65.1,3.29.24,4.94.44C339.18,124.84,337.56,124.66,335.92,124.53Z"/><path class="cls-2" d="M237.34,168.57c.09-.12.18-.23.26-.35C237.52,168.34,237.43,168.45,237.34,168.57Z"/><path class="cls-2" d="M343.47,125.41c.38.06.77.11,1.15.18C344.24,125.52,343.85,125.47,343.47,125.41Z"/><path class="cls-2" d="M223.45,192.55c.19-.46.39-.93.6-1.39C223.84,191.62,223.64,192.09,223.45,192.55Z"/><path class="cls-2" d="M243.79,155.11l-.18.23.48-.41Z"/><path class="cls-2" d="M219.48,203.46c.23-.72.44-1.45.68-2.17C219.92,202,219.71,202.74,219.48,203.46Z"/><path class="cls-2" d="M367.75,131.92l1.35.56Z"/><path class="cls-2" d="M214.6,192.64v.07l.06-.12Z"/><path class="cls-2" d="M222.07,196c.19-.5.38-1,.58-1.5C222.45,195,222.26,195.47,222.07,196Z"/><path class="cls-2" d="M364,130.53l1.29.48Z"/><path class="cls-2" d="M220.78,199.49l.57-1.64Z"/><path class="cls-3" d="M126.3,206.17q-1.64,5.22-2.77,10.65a112.75,112.75,0,0,0-2.34,22.88c0,1.33,0,2.66.07,4,0,.31,0,.61,0,.92.06,1.3.13,2.6.23,3.89,0,.14,0,.28,0,.42.09,1.19.21,2.37.34,3.55,0,.28.07.57.1.85.15,1.27.33,2.53.52,3.79,0,.21.07.42.11.63.18,1.12.38,2.24.59,3.35,0,.25.09.49.14.73.25,1.24.52,2.48.81,3.7.06.24.11.48.17.71.27,1.12.56,2.23.86,3.33.05.18.1.35.14.52.35,1.22.71,2.43,1.1,3.64.07.24.15.47.23.71.38,1.17.77,2.33,1.19,3.47l.06.18c.44,1.21.9,2.4,1.38,3.59.09.22.18.44.28.66q1.47,3.58,3.17,7c.1.19.19.39.29.58.58,1.15,1.18,2.3,1.8,3.44l0,.08c.61,1.11,1.25,2.22,1.89,3.31l.26.43c.67,1.12,1.35,2.22,2.06,3.32a1.37,1.37,0,0,1,.13.2c.7,1.07,1.41,2.13,2.14,3.17a1.88,1.88,0,0,1,.16.23c.76,1.08,1.54,2.14,2.34,3.2l.18.23q2.43,3.2,5.08,6.2l.19.21c1.78,2,3.62,4,5.54,5.83l.16.16c1.95,1.9,3.95,3.72,6,5.47l.09.08a112,112,0,0,0,32.3,19h0a110.67,110.67,0,0,0,18.33,5.22l.23.05c1,.18,1.95.36,2.92.52l.25,0c1,.17,2.07.32,3.12.46a113.6,113.6,0,0,0,15,1A111.92,111.92,0,0,0,267,346.6h0c1.18-.37,2.34-.76,3.5-1.17l.13,0c1.16-.41,2.3-.84,3.44-1.28h0l.37-.14,1.92-.79.78-.33,1.62-.7,1.28-.58,1.21-.56q1.28-.6,2.52-1.23h0c.88-.45,1.75-.91,2.62-1.38l1.52-.84h0l.12-.07a112.28,112.28,0,0,0,17.19-11.88l.4-.34q1-.88,2.07-1.8l.73-.65c.61-.55,1.22-1.12,1.82-1.68l.9-.87c.55-.53,1.1-1.07,1.63-1.61l1-1,1.48-1.56,1.08-1.18,1.35-1.51,1.13-1.33c.41-.48.82-1,1.22-1.46l1.19-1.48c.36-.47.73-.93,1.09-1.39l1.24-1.68c.32-.43.64-.85.95-1.29.47-.65.92-1.31,1.37-2,.24-.35.49-.7.73-1.06.69-1,1.36-2.07,2-3.13-.95,1.11-2,2.45-3.2,4-15.77,20.55-42,28.19-65.23,19a57,57,0,0,1-16.69-10.26,111.81,111.81,0,0,1-28.91-75.11h0c0-1.3,0-2.59.07-3.87,0-.43.05-.86.07-1.28,0-.86.07-1.71.13-2.56L215,227c.07-.76.13-1.53.21-2.29.05-.53.12-1.07.18-1.6.08-.72.17-1.45.27-2.17.08-.55.15-1.09.24-1.63.1-.71.22-1.41.34-2.11s.18-1.09.29-1.63c.13-.7.27-1.39.41-2.08l.33-1.61c.16-.7.33-1.4.5-2.09.12-.52.24-1,.37-1.55.2-.78.42-1.55.64-2.32s.47-1.63.71-2.45.44-1.45.68-2.17.41-1.2.62-1.8l.57-1.64c.23-.63.48-1.25.72-1.88s.38-1,.58-1.5.53-1.28.8-1.92c.19-.46.39-.93.6-1.39.28-.65.58-1.31.88-2l.6-1.26c.32-.68.65-1.35,1-2l.57-1.09c.36-.72.74-1.43,1.12-2.13l.43-.77a113.1,113.1,0,0,1,6.87-10.87v0c.6-.84,1.21-1.66,1.83-2.47.09-.12.18-.23.26-.35.6-.78,1.21-1.56,1.83-2.32l.32-.4c.63-.77,1.27-1.53,1.91-2.28l.28-.33c.68-.78,1.36-1.55,2.06-2.3l.12-.14a112.48,112.48,0,0,1,32.06-24.3c11.68-5.91,23.82-9,36.77-10.53a128.59,128.59,0,0,1,22.91-1l.06-.07c1.64.13,3.26.31,4.88.51l.7.08,2,.29c.38.06.77.11,1.15.18,1,.16,2,.33,3,.52l1,.19c1.08.22,2.16.45,3.24.7l.69.15c1.32.31,2.62.65,3.92,1l.13,0c1.23.34,2.46.7,3.68,1.09.37.11.74.24,1.11.36.89.29,1.77.58,2.65.89l1.29.48c.81.3,1.63.6,2.43.91l1.35.56c.55.22,1.11.44,1.65.67,8.65,3.7,18.28,8.53,25.23,15h0a177.87,177.87,0,0,0-41.64-28.85c-35.41-17.64-75.3-21.45-113.67-12.1a166.2,166.2,0,0,0-92.34,59.39,112.2,112.2,0,0,0-17.65,27.92c-.86,2-1.66,3.95-2.42,6-.47,1.26-.91,2.52-1.34,3.8C126.71,204.89,126.5,205.53,126.3,206.17Zm117.49-51.06.3-.18-.48.41ZM214.6,192.64l.05,0-.06.12Z"/><path class="cls-4" d="M239.75,165.5c.63-.77,1.27-1.53,1.91-2.28C241,164,240.38,164.73,239.75,165.5Z"/><path class="cls-4" d="M241.94,162.89c.68-.77,1.36-1.55,2.06-2.3C243.3,161.34,242.62,162.11,241.94,162.89Z"/><path class="cls-4" d="M341.5,125.12l-.7-.08,2.67.37Z"/><path class="cls-4" d="M369.1,132.48A111.59,111.59,0,0,1,396,148.14c-7-6.46-16.58-11.29-25.23-15C370.21,132.92,369.65,132.7,369.1,132.48Z"/><path class="cls-4" d="M356.59,128.19c1.23.34,2.46.7,3.68,1.09C359.05,128.89,357.82,128.53,356.59,128.19Z"/><path class="cls-4" d="M361.38,129.64c.89.29,1.78.58,2.65.89C363.15,130.22,362.27,129.93,361.38,129.64Z"/><path class="cls-4" d="M344.62,125.59c1,.16,2,.33,3,.52C346.59,125.92,345.61,125.75,344.62,125.59Z"/><path class="cls-4" d="M365.32,131c.81.3,1.63.6,2.43.91C367,131.61,366.13,131.31,365.32,131Z"/><path class="cls-4" d="M348.61,126.3c1.08.22,2.16.45,3.24.7C350.77,126.75,349.69,126.52,348.61,126.3Z"/><path class="cls-4" d="M424.46,186a42.62,42.62,0,0,0-1.68-4.36,61.14,61.14,0,0,0-7.29-12A169.17,169.17,0,0,0,396,148.14h0a111.59,111.59,0,0,0-26.88-15.66l-1.35-.56c-.8-.31-1.62-.61-2.43-.91l-1.29-.48c-.87-.31-1.76-.6-2.65-.89-.37-.12-.74-.25-1.11-.36-1.22-.39-2.45-.75-3.68-1.09l-.13,0c-1.29-.35-2.6-.69-3.92-1l-.69-.15c-1.08-.25-2.16-.48-3.24-.7l-1-.19c-1-.19-2-.36-3-.52-.38-.07-.77-.12-1.15-.18L340.8,125c-1.65-.2-3.29-.34-4.94-.44a128.59,128.59,0,0,0-22.91,1c-12.95,1.54-25.09,4.62-36.77,10.53A112.26,112.26,0,0,0,253.87,151l-.12.11c-1.63,1.4-3.22,2.84-4.77,4.34l-.44.42q-.9.87-1.77,1.77l-.54.54c-.71.74-1.42,1.48-2.11,2.23l-.12.14c-.7.75-1.38,1.53-2.06,2.3l-.28.33c-.64.75-1.28,1.51-1.91,2.28l-.32.4c-.62.76-1.23,1.54-1.83,2.32-.08.12-.17.23-.26.35-.62.81-1.23,1.63-1.83,2.47v0a113.1,113.1,0,0,0-6.87,10.87l-.43.77c-.38.7-.75,1.41-1.12,2.13l-.57,1.09c-.33.67-.66,1.34-1,2l-.6,1.26c-.3.65-.6,1.31-.88,2-.21.46-.41.93-.6,1.39-.27.64-.54,1.28-.8,1.92s-.39,1-.58,1.5-.49,1.25-.72,1.88l-.57,1.64c-.21.6-.42,1.2-.62,1.8s-.45,1.45-.68,2.17-.48,1.63-.71,2.45-.44,1.54-.64,2.32c-.13.51-.25,1-.37,1.55-.17.69-.34,1.39-.5,2.09l-.33,1.61c-.14.69-.28,1.38-.41,2.08-.11.54-.2,1.08-.29,1.63s-.24,1.4-.34,2.11c-.09.54-.16,1.08-.24,1.63-.1.72-.19,1.45-.27,2.17-.06.53-.13,1.07-.18,1.6-.08.76-.14,1.53-.21,2.29l-.12,1.52c-.06.85-.1,1.7-.13,2.56,0,.42-.05.85-.07,1.28,0,1.28-.07,2.57-.07,3.87a112.22,112.22,0,0,0,13.55,53.46,53,53,0,0,1-3.86-22.37c1.16-23.9,17.38-44.85,39.84-51.45,24-7.06,48.32,1.62,62.92,22.47,5.59,8,7.75,8.55,16.14,3.72l2.12-1.22q36.6-21,73.14-42.18C423.39,195.79,426.27,191.68,424.46,186Z"/><path class="cls-4" d="M352.54,127.15c1.32.31,2.63.65,3.92,1C355.16,127.8,353.86,127.46,352.54,127.15Z"/><path class="cls-4" d="M235.51,171c.6-.84,1.21-1.66,1.83-2.47C236.72,169.38,236.11,170.2,235.51,171Z"/><path class="cls-4" d="M222.65,194.47c.26-.64.53-1.28.8-1.92C223.18,193.19,222.91,193.83,222.65,194.47Z"/><path class="cls-4" d="M214.67,232.35c0-.43.05-.86.07-1.28C214.72,231.49,214.69,231.92,214.67,232.35Z"/><path class="cls-4" d="M214.6,236.22a111.7,111.7,0,0,0,8.09,41.84,111.7,111.7,0,0,1-8.09-41.84Z"/><path class="cls-4" d="M217.76,209.78c.12-.52.24-1,.37-1.55C218,208.74,217.88,209.26,217.76,209.78Z"/><path class="cls-4" d="M214.87,228.51,215,227Z"/><path class="cls-4" d="M227.08,184.83c.37-.72.74-1.43,1.12-2.13C227.82,183.4,227.44,184.11,227.08,184.83Z"/><path class="cls-4" d="M224.05,191.16c.28-.65.58-1.31.88-2C224.63,189.85,224.33,190.51,224.05,191.16Z"/><path class="cls-4" d="M225.53,187.94c.32-.68.65-1.35,1-2C226.18,186.59,225.85,187.26,225.53,187.94Z"/><path class="cls-4" d="M228.63,181.93a113.1,113.1,0,0,1,6.87-10.87A113.1,113.1,0,0,0,228.63,181.93Z"/><path class="cls-4" d="M237.6,168.22c.6-.78,1.21-1.56,1.83-2.32C238.81,166.66,238.2,167.44,237.6,168.22Z"/><path class="cls-4" d="M216.93,213.48l.33-1.61Z"/><path class="cls-4" d="M216.23,217.19c.09-.55.18-1.09.29-1.63C216.41,216.1,216.32,216.64,216.23,217.19Z"/><path class="cls-4" d="M218.77,205.91c.23-.82.47-1.63.71-2.45C219.24,204.28,219,205.09,218.77,205.91Z"/><path class="cls-4" d="M215.65,220.93c.08-.55.15-1.09.24-1.63C215.8,219.84,215.73,220.38,215.65,220.93Z"/><path class="cls-4" d="M220.16,201.29c.2-.6.41-1.2.62-1.8C220.57,200.09,220.36,200.69,220.16,201.29Z"/><path class="cls-4" d="M215.2,224.7c.05-.53.12-1.07.18-1.6C215.32,223.63,215.25,224.17,215.2,224.7Z"/><path class="cls-4" d="M221.35,197.85c.23-.63.48-1.25.72-1.88C221.83,196.6,221.58,197.22,221.35,197.85Z"/><path class="cls-5" d="M123.37,261.81c-.05-.24-.09-.48-.14-.73C123.28,261.33,123.32,261.57,123.37,261.81Z"/><path class="cls-5" d="M133.05,289.92c-.1-.19-.19-.39-.29-.58C132.86,289.53,133,289.73,133.05,289.92Z"/><path class="cls-5" d="M288.05,337.48h0l-.12.07Z"/><path class="cls-5" d="M313.79,317.61l-1,1Z"/><path class="cls-5" d="M129.59,282.32c-.1-.22-.19-.44-.28-.66C129.4,281.88,129.49,282.1,129.59,282.32Z"/><path class="cls-5" d="M134.89,293.44l0-.08Z"/><path class="cls-5" d="M316.35,314.87l-1.08,1.18Z"/><path class="cls-5" d="M308.42,322.8l-.73.65Z"/><path class="cls-5" d="M305.62,325.25l-.4.34Z"/><path class="cls-5" d="M122.64,257.73c0-.21-.07-.42-.11-.63C122.57,257.31,122.6,257.52,122.64,257.73Z"/><path class="cls-5" d="M311.14,320.25l-.9.87Z"/><path class="cls-5" d="M325.89,302.75c-.45.67-.9,1.33-1.37,2C325,304.08,325.44,303.42,325.89,302.75Z"/><path class="cls-5" d="M323.57,306l-1.24,1.68Z"/><path class="cls-5" d="M125.35,270.07c0-.17-.09-.34-.14-.52C125.26,269.73,125.31,269.9,125.35,270.07Z"/><path class="cls-5" d="M126.68,274.42c-.08-.24-.16-.47-.23-.71C126.52,274,126.6,274.18,126.68,274.42Z"/><path class="cls-5" d="M328.63,298.56h0c-.65,1.06-1.32,2.1-2,3.13C327.31,300.66,328,299.62,328.63,298.56Z"/><path class="cls-5" d="M124.35,266.22c-.06-.23-.11-.47-.17-.71C124.24,265.75,124.29,266,124.35,266.22Z"/><path class="cls-5" d="M127.93,278.07l-.06-.18Z"/><path class="cls-5" d="M318.83,312l-1.13,1.33Z"/><path class="cls-5" d="M128.26,200.46c-.47,1.26-.91,2.52-1.34,3.8C127.35,203,127.79,201.72,128.26,200.46Z"/><path class="cls-5" d="M321.24,309.09l-1.19,1.48Z"/><path class="cls-5" d="M277.09,342.85l-.78.33Z"/><polygon class="cls-5" points="193.44 344.48 193.44 344.48 193.44 344.48 193.44 344.48 193.44 344.48"/><path class="cls-5" d="M417.79,340.29l-24.35-14.06-47.73-27.54c-9.62-5.55-11.84-6.27-17.08-.13-.65,1.06-1.32,2.1-2,3.13-.24.36-.49.71-.73,1.06-.45.67-.9,1.33-1.37,2-.31.44-.63.86-.95,1.29l-1.24,1.68c-.36.46-.73.92-1.09,1.39l-1.19,1.48c-.4.49-.81,1-1.22,1.46l-1.13,1.33-1.35,1.51-1.08,1.18-1.48,1.56-1,1c-.53.54-1.08,1.08-1.63,1.61l-.9.87c-.6.56-1.21,1.13-1.82,1.68l-.73.65q-1,.92-2.07,1.8l-.4.34A112.28,112.28,0,0,1,288,337.47h0l-.14.06-1.52.84c-.87.47-1.74.93-2.62,1.38h0q-1.25.63-2.52,1.23l-1.21.56-1.28.58-1.62.7-.78.33-1.92.79h0l-.09,0-.27.1c-1.14.44-2.28.87-3.44,1.28l-.13,0c-1.16.41-2.32.8-3.5,1.17a111.92,111.92,0,0,1-33.69,5.17,113.6,113.6,0,0,1-15-1c-1-.14-2.09-.29-3.12-.46l-.25,0c-1-.16-1.95-.34-2.92-.52l-.23-.05a110.67,110.67,0,0,1-18.33-5.22h0a112,112,0,0,1-32.3-19l-.09-.08c-2.08-1.75-4.08-3.57-6-5.47l-.16-.16c-1.92-1.87-3.76-3.82-5.54-5.83l-.19-.21q-2.65-3-5.08-6.2l-.18-.23c-.8-1.06-1.58-2.12-2.34-3.2a1.88,1.88,0,0,0-.16-.23c-.73-1.05-1.44-2.1-2.14-3.17a1.37,1.37,0,0,0-.13-.2c-.71-1.1-1.39-2.2-2.06-3.32l-.26-.43c-.64-1.09-1.28-2.2-1.89-3.31l0-.08c-.62-1.14-1.22-2.29-1.8-3.44-.1-.19-.19-.39-.29-.58q-1.69-3.43-3.17-7c-.1-.22-.19-.44-.28-.66-.48-1.19-.94-2.38-1.38-3.59l-.06-.18c-.42-1.14-.81-2.3-1.19-3.47-.08-.24-.16-.47-.23-.71-.39-1.21-.75-2.42-1.1-3.64,0-.17-.09-.34-.14-.52-.3-1.1-.59-2.21-.86-3.33-.06-.23-.11-.47-.17-.71-.29-1.22-.56-2.46-.81-3.7-.05-.24-.09-.48-.14-.73-.21-1.11-.41-2.23-.59-3.35,0-.21-.07-.42-.11-.63-.19-1.26-.37-2.52-.52-3.79,0-.28-.06-.57-.1-.85-.13-1.18-.25-2.36-.34-3.55,0-.14,0-.28,0-.42-.1-1.29-.17-2.59-.23-3.89,0-.31,0-.61,0-.92,0-1.32-.07-2.65-.07-4a112.75,112.75,0,0,1,2.34-22.88q1.13-5.43,2.77-10.65c.2-.64.41-1.28.62-1.91.43-1.28.87-2.54,1.34-3.8.76-2,1.56-4,2.42-6A166,166,0,0,0,131.82,346c29.66,57.39,78.51,88.55,143.1,90.77,63.38,2.18,112.61-25.58,147.47-78.5C428.46,349.06,427.44,345.86,417.79,340.29Z"/><path class="cls-5" d="M141.53,304.1a1.88,1.88,0,0,0-.16-.23A1.88,1.88,0,0,1,141.53,304.1Z"/><path class="cls-5" d="M161.14,325.48l-.09-.08Z"/><path class="cls-5" d="M212,349.75l-.23-.05Z"/><path class="cls-5" d="M144.05,307.53l-.18-.23Z"/><path class="cls-5" d="M149.32,313.94l-.19-.21Z"/><path class="cls-5" d="M123.53,216.82q1.13-5.43,2.77-10.65Q124.67,211.39,123.53,216.82Z"/><path class="cls-5" d="M215.17,350.31l-.25,0Z"/><path class="cls-5" d="M155,319.93l-.16-.16Z"/><path class="cls-5" d="M283.72,339.78q-1.25.63-2.52,1.23Q282.48,340.41,283.72,339.78Z"/><path class="cls-5" d="M122,253.31c0-.28-.06-.57-.1-.85C122,252.74,122,253,122,253.31Z"/><path class="cls-5" d="M137,297.18l-.26-.43Z"/><path class="cls-5" d="M280,341.57l-1.28.58Z"/><path class="cls-5" d="M286.39,338.38c-.87.47-1.74.93-2.62,1.38C284.65,339.31,285.52,338.85,286.39,338.38Z"/><path class="cls-5" d="M121.57,248.91c0-.14,0-.28,0-.42C121.54,248.63,121.55,248.77,121.57,248.91Z"/><path class="cls-5" d="M121.3,244.6c0-.31,0-.61,0-.92C121.28,244,121.29,244.29,121.3,244.6Z"/><path class="cls-5" d="M274.29,344l.09,0h0l-.37.14Z"/><path class="cls-5" d="M270.58,345.39l-.13,0Z"/><path class="cls-5" d="M139.23,300.7a1.37,1.37,0,0,0-.13-.2A1.37,1.37,0,0,1,139.23,300.7Z"/></g></g></svg>